CATALOG 4974365090265
FILE "Gakkou no Kaidan v1.000 (1995)(Sega)(NTSC)(JP)(Track 1 of 3)[!][GS-9026P-00362-P3K].iso" BINARY
  TRACK 01 MODE1/2048
    INDEX 01 00:00:00
FILE "Gakkou no Kaidan v1.000 (1995)(Sega)(NTSC)(JP)(Track 2 of 3)[!][GS-9026P-00362-P3K].iso" BINARY
  TRACK 02 MODE2/2336
    PREGAP 00:03:00
    INDEX 01 00:00:00
FILE "Gakkou no Kaidan v1.000 (1995)(Sega)(NTSC)(JP)(Track 3 of 3)[!][GS-9026P-00362-P3K].wav" WAVE
  TRACK 03 AUDIO
    PREGAP 00:02:00
    INDEX 01 00:00:00
